<svg width="206" height="75" viewBox="0 0 206 75" fill="none" xmlns="http://www.w3.org/2000/svg">
<path d="M65.36 27.848C65.36 29.704 64.992 31.376 64.256 32.864C63.536 34.336 62.512 35.528 61.184 36.44L63.848 40.832H58.232L56.888 38.072C56.44 38.136 55.912 38.168 55.304 38.168C53.88 38.168 52.624 37.872 51.536 37.28C50.448 36.688 49.608 35.856 49.016 34.784C48.424 33.712 48.128 32.48 48.128 31.088C48.128 29.088 48.544 27.312 49.376 25.76C50.224 24.192 51.4 22.976 52.904 22.112C54.424 21.248 56.16 20.816 58.112 20.816C59.568 20.816 60.84 21.112 61.928 21.704C63.032 22.28 63.88 23.104 64.472 24.176C65.064 25.232 65.36 26.456 65.36 27.848ZM52.784 30.536C52.784 31.544 53.064 32.344 53.624 32.936C54.184 33.512 54.984 33.8 56.024 33.8C56.968 33.8 57.792 33.552 58.496 33.056C59.216 32.56 59.76 31.904 60.128 31.088C60.512 30.256 60.704 29.36 60.704 28.4C60.704 27.376 60.424 26.584 59.864 26.024C59.32 25.448 58.536 25.16 57.512 25.16C56.568 25.16 55.736 25.408 55.016 25.904C54.296 26.384 53.744 27.032 53.36 27.848C52.976 28.664 52.784 29.56 52.784 30.536ZM82.2101 24.536L79.8101 38H75.1061L75.4421 36.08C74.9141 36.688 74.2661 37.184 73.4981 37.568C72.7461 37.936 71.9141 38.12 71.0021 38.12C69.6741 38.12 68.6421 37.744 67.9061 36.992C67.1701 36.24 66.8021 35.192 66.8021 33.848C66.8021 33.384 66.8501 32.888 66.9461 32.36L68.3141 24.536H73.0181L71.7461 31.76C71.6981 31.968 71.6741 32.176 71.6741 32.384C71.6741 32.96 71.8421 33.416 72.1781 33.752C72.5141 34.072 72.9701 34.232 73.5461 34.232C74.2181 34.232 74.7861 34.024 75.2501 33.608C75.7141 33.192 76.0261 32.616 76.1861 31.88L77.4821 24.536H82.2101ZM90.9832 24.368C92.7432 24.368 94.1352 24.84 95.1592 25.784C96.1992 26.728 96.7192 28.016 96.7192 29.648C96.7192 30.192 96.6792 30.672 96.5992 31.088C96.5032 31.6 96.4072 31.968 96.3112 32.192H87.4072C87.3912 32.288 87.3832 32.432 87.3832 32.624C87.3832 33.232 87.5272 33.68 87.8152 33.968C88.1192 34.256 88.5192 34.4 89.0152 34.4C89.7992 34.4 90.4232 34.048 90.8872 33.344H95.8792C95.5112 34.272 94.9592 35.104 94.2232 35.84C93.5032 36.56 92.6472 37.128 91.6552 37.544C90.6792 37.96 89.6392 38.168 88.5352 38.168C86.7752 38.168 85.3752 37.688 84.3352 36.728C83.2952 35.768 82.7752 34.448 82.7752 32.768C82.7752 32.288 82.8232 31.784 82.9192 31.256C83.1752 29.848 83.6792 28.632 84.4312 27.608C85.1992 26.568 86.1432 25.768 87.2632 25.208C88.3992 24.648 89.6392 24.368 90.9832 24.368ZM91.9672 30.08C91.9992 29.856 92.0152 29.712 92.0152 29.648C92.0152 29.136 91.8552 28.752 91.5352 28.496C91.2152 28.224 90.7992 28.088 90.2872 28.088C89.6952 28.088 89.1832 28.256 88.7512 28.592C88.3192 28.928 87.9992 29.424 87.7912 30.08H91.9672ZM103.156 38.168C102.036 38.168 101.036 38 100.156 37.664C99.2763 37.328 98.5883 36.856 98.0923 36.248C97.5963 35.624 97.3483 34.912 97.3483 34.112C97.3483 33.968 97.3643 33.752 97.3963 33.464H101.932C101.916 33.912 102.052 34.256 102.34 34.496C102.628 34.736 103.028 34.856 103.54 34.856C103.94 34.856 104.268 34.776 104.524 34.616C104.796 34.456 104.932 34.248 104.932 33.992C104.932 33.688 104.764 33.456 104.428 33.296C104.092 33.12 103.532 32.904 102.748 32.648C101.836 32.36 101.084 32.08 100.492 31.808C99.9003 31.536 99.3803 31.136 98.9323 30.608C98.5003 30.08 98.2843 29.4 98.2843 28.568C98.2843 27.768 98.5163 27.048 98.9803 26.408C99.4603 25.768 100.132 25.272 100.996 24.92C101.86 24.552 102.86 24.368 103.996 24.368C105.212 24.368 106.26 24.576 107.14 24.992C108.036 25.392 108.7 25.952 109.132 26.672C109.58 27.392 109.78 28.192 109.732 29.072H105.508C105.524 28.64 105.396 28.304 105.124 28.064C104.852 27.808 104.46 27.68 103.948 27.68C103.58 27.68 103.276 27.76 103.036 27.92C102.796 28.08 102.676 28.288 102.676 28.544C102.676 28.848 102.844 29.088 103.18 29.264C103.532 29.44 104.116 29.664 104.932 29.936C105.828 30.224 106.572 30.512 107.164 30.8C107.772 31.072 108.292 31.464 108.724 31.976C109.156 32.472 109.372 33.112 109.372 33.896C109.372 35.224 108.796 36.272 107.644 37.04C106.492 37.792 104.996 38.168 103.156 38.168ZM117.277 32.96C117.261 33.04 117.253 33.136 117.253 33.248C117.253 33.504 117.325 33.696 117.469 33.824C117.629 33.936 117.885 33.992 118.237 33.992H119.605L118.885 38H116.821C113.893 38 112.429 36.768 112.429 34.304C112.429 33.888 112.477 33.416 112.573 32.888L113.365 28.448H111.709L112.405 24.536H114.061L114.637 21.272H119.365L118.789 24.536H121.213L120.517 28.448H118.093L117.277 32.96ZM126.01 23.288C125.274 23.288 124.69 23.104 124.258 22.736C123.842 22.368 123.634 21.896 123.634 21.32C123.634 20.808 123.77 20.336 124.042 19.904C124.33 19.456 124.714 19.104 125.194 18.848C125.69 18.576 126.242 18.44 126.85 18.44C127.586 18.44 128.162 18.632 128.578 19.016C129.01 19.384 129.226 19.864 129.226 20.456C129.226 20.968 129.082 21.44 128.794 21.872C128.522 22.304 128.138 22.648 127.642 22.904C127.146 23.16 126.602 23.288 126.01 23.288ZM128.122 24.536L125.746 38H121.018L123.418 24.536H128.122ZM134.665 38.168C133.497 38.168 132.457 37.936 131.545 37.472C130.649 37.008 129.953 36.352 129.457 35.504C128.961 34.656 128.713 33.664 128.713 32.528C128.713 30.992 129.073 29.6 129.793 28.352C130.529 27.104 131.537 26.128 132.817 25.424C134.097 24.72 135.529 24.368 137.113 24.368C138.281 24.368 139.313 24.6 140.209 25.064C141.121 25.528 141.825 26.192 142.321 27.056C142.833 27.904 143.089 28.896 143.089 30.032C143.089 31.584 142.721 32.984 141.985 34.232C141.249 35.464 140.241 36.432 138.961 37.136C137.681 37.824 136.249 38.168 134.665 38.168ZM135.385 34.112C135.945 34.112 136.441 33.936 136.873 33.584C137.321 33.232 137.657 32.776 137.881 32.216C138.121 31.656 138.241 31.08 138.241 30.488C138.241 29.816 138.065 29.304 137.713 28.952C137.377 28.6 136.937 28.424 136.393 28.424C135.817 28.424 135.313 28.6 134.881 28.952C134.465 29.304 134.137 29.76 133.897 30.32C133.673 30.88 133.561 31.464 133.561 32.072C133.561 32.744 133.729 33.256 134.065 33.608C134.401 33.944 134.841 34.112 135.385 34.112ZM154.891 24.416C156.203 24.416 157.227 24.8 157.963 25.568C158.715 26.32 159.091 27.368 159.091 28.712C159.091 29.16 159.043 29.64 158.947 30.152L157.555 38H152.851L154.123 30.776C154.171 30.536 154.195 30.32 154.195 30.128C154.195 29.552 154.027 29.104 153.691 28.784C153.371 28.464 152.915 28.304 152.323 28.304C151.651 28.304 151.083 28.512 150.619 28.928C150.155 29.344 149.843 29.92 149.683 30.656L148.387 38H143.659L146.059 24.536H150.763L150.427 26.456C150.955 25.848 151.603 25.36 152.371 24.992C153.139 24.608 153.979 24.416 154.891 24.416ZM165.992 38.168C164.872 38.168 163.872 38 162.992 37.664C162.112 37.328 161.424 36.856 160.928 36.248C160.432 35.624 160.184 34.912 160.184 34.112C160.184 33.968 160.2 33.752 160.232 33.464H164.768C164.752 33.912 164.888 34.256 165.176 34.496C165.464 34.736 165.864 34.856 166.376 34.856C166.776 34.856 167.104 34.776 167.36 34.616C167.632 34.456 167.768 34.248 167.768 33.992C167.768 33.688 167.6 33.456 167.264 33.296C166.928 33.12 166.368 32.904 165.584 32.648C164.672 32.36 163.92 32.08 163.328 31.808C162.736 31.536 162.216 31.136 161.768 30.608C161.336 30.08 161.12 29.4 161.12 28.568C161.12 27.768 161.352 27.048 161.816 26.408C162.296 25.768 162.968 25.272 163.832 24.92C164.696 24.552 165.696 24.368 166.832 24.368C168.048 24.368 169.096 24.576 169.976 24.992C170.872 25.392 171.536 25.952 171.968 26.672C172.416 27.392 172.616 28.192 172.568 29.072H168.344C168.36 28.64 168.232 28.304 167.96 28.064C167.688 27.808 167.296 27.68 166.784 27.68C166.416 27.68 166.112 27.76 165.872 27.92C165.632 28.08 165.512 28.288 165.512 28.544C165.512 28.848 165.68 29.088 166.016 29.264C166.368 29.44 166.952 29.664 167.768 29.936C168.664 30.224 169.408 30.512 170 30.8C170.608 31.072 171.128 31.464 171.56 31.976C171.992 32.472 172.208 33.112 172.208 33.896C172.208 35.224 171.632 36.272 170.48 37.04C169.328 37.792 167.832 38.168 165.992 38.168Z" fill="url(#paint0_linear_2_29)"/>
<path d="M115 15.9024V8.73438C115 5.56737 117.567 3 120.734 3H182.379C185.546 3 188.113 5.56737 188.113 8.73438V48.8751C188.113 52.0421 185.546 54.6094 182.379 54.6094H172.344L175.698 70.2603C175.991 71.6282 174.351 72.563 173.323 71.6141L158.008 57.4766H120.734C117.567 57.4766 115 54.9093 115 51.7422V48.8751" stroke="url(#paint1_linear_2_29)" stroke-width="4.30079"/>
<path d="M17.456 38.168C15.872 38.168 14.416 37.8 13.088 37.064C11.76 36.312 10.704 35.28 9.92 33.968C9.152 32.64 8.768 31.144 8.768 29.48C8.768 27.816 9.152 26.328 9.92 25.016C10.704 23.688 11.76 22.656 13.088 21.92C14.416 21.184 15.872 20.816 17.456 20.816C19.056 20.816 20.512 21.184 21.824 21.92C23.152 22.656 24.2 23.688 24.968 25.016C25.736 26.328 26.12 27.816 26.12 29.48C26.12 31.144 25.736 32.64 24.968 33.968C24.2 35.28 23.152 36.312 21.824 37.064C20.496 37.8 19.04 38.168 17.456 38.168ZM17.456 33.8C18.656 33.8 19.6 33.408 20.288 32.624C20.992 31.84 21.344 30.792 21.344 29.48C21.344 28.136 20.992 27.08 20.288 26.312C19.6 25.528 18.656 25.136 17.456 25.136C16.24 25.136 15.288 25.528 14.6 26.312C13.912 27.08 13.568 28.136 13.568 29.48C13.568 30.808 13.912 31.864 14.6 32.648C15.288 33.416 16.24 33.8 17.456 33.8ZM37.0426 24.416C38.5946 24.416 39.8266 24.936 40.7386 25.976C41.6506 27 42.1066 28.392 42.1066 30.152V38H37.4026V30.776C37.4026 30.008 37.2026 29.408 36.8026 28.976C36.4026 28.528 35.8666 28.304 35.1946 28.304C34.4906 28.304 33.9386 28.528 33.5386 28.976C33.1386 29.408 32.9386 30.008 32.9386 30.776V38H28.2346V24.536H32.9386V26.456C33.3546 25.848 33.9146 25.36 34.6186 24.992C35.3226 24.608 36.1306 24.416 37.0426 24.416Z" fill="#29292E"/>
<defs>
<linearGradient id="paint0_linear_2_29" x1="110.5" y1="12" x2="110.5" y2="48" gradientUnits="userSpaceOnUse">
<stop stop-color="#555AFE"/>
<stop offset="1" stop-color="#F659F8"/>
</linearGradient>
<linearGradient id="paint1_linear_2_29" x1="115" y1="3" x2="175.211" y2="77.547" gradientUnits="userSpaceOnUse">
<stop stop-color="#485BFF"/>
<stop offset="1" stop-color="#FF59F8"/>
</linearGradient>
</defs>
</svg>
